<?xml version="1.0" encoding="UTF-8"?>
<svg version="1.1" xmlns="http://www.w3.org/2000/svg" width="214" height="287">
<path d="M0 0 C0.495 0.99 0.495 0.99 1 2 C1.763125 2.29777344 2.52625 2.59554687 3.3125 2.90234375 C11.74935292 6.34820955 16.4592805 15.18504783 19.93359375 23.13671875 C25.6433399 37.47938252 23.20906142 52.77873267 17.53125 66.7421875 C13.08064356 76.21107976 6.66288858 83.80396699 -0.484375 91.30859375 C-3.00403241 93.93280809 -3.00403241 93.93280809 -5.11328125 96.65625 C-6.78761507 98.73616779 -8.39745615 100.35867719 -10.4375 102.0625 C-14.70153897 105.70947953 -18.81917921 109.49588281 -22.93261719 113.31030273 C-26.1667097 116.30840145 -29.41392463 119.29041719 -32.68041992 122.25317383 C-35.13441139 124.4869302 -37.56614828 126.74431699 -40 129 C-41.24523437 130.12728516 -41.24523437 130.12728516 -42.515625 131.27734375 C-56.15356823 144.14540309 -67.3908625 160.72517412 -72 179 C-72.99 178.67 -73.98 178.34 -75 178 C-75.71919119 176.35531576 -76.3775615 174.68368422 -77 173 C-78.06982596 171.26995398 -79.17663667 169.56242446 -80.3125 167.875 C-88.15047101 155.69348673 -92.81160151 143.59050782 -90 129 C-85.57994228 110.2147547 -65.55379902 97.23348649 -50.99414062 86.47998047 C-45.9385747 82.72791868 -40.95659212 78.8815003 -36 75 C-35.29101562 74.44828125 -34.58203125 73.8965625 -33.8515625 73.328125 C-25.05484061 66.18318932 -20.11698755 57.17344743 -18.125 46 C-17.58307925 39.57625648 -18.82053144 33.23692313 -21.8125 27.5625 C-26.21446975 22.40590687 -30.38691838 19.4557117 -37.25390625 18.77734375 C-53.18143855 18.20405229 -68.16087234 27.6180567 -80.7421875 36.53125 C-83 38 -83 38 -85 38 C-77.29159539 21.42879202 -59.81086765 7.77157863 -43 1.41015625 C-28.71559114 -3.61185651 -14.5561311 -4.91974663 0 0 Z " fill="#1D578A" transform="translate(169,108)"/>
<path d="M0 0 C10.04650123 15.06975184 17.88558631 31.55821382 14.421875 50.09375 C9.28227085 67.84874615 -5.99648297 79.2391428 -20 90 C-43.13005816 107.44738249 -43.13005816 107.44738249 -55 132.875 C-55.40702593 139.2385029 -53.6957658 145.71524335 -49.60546875 150.69921875 C-40.86888844 158.37542256 -30.45703787 158.7694334 -19.43066406 158.23095703 C-7.61535109 157.10828868 4.14564115 152.57948713 15 148 C15.33 148.66 15.66 149.32 16 150 C0.77825401 166.36746881 -22.37505797 180.8673004 -44.92333984 182.04443359 C-57.13647014 182.33890152 -68.03759316 179.28862553 -77.1796875 171.03125 C-88.84371854 158.88305164 -91.55797856 145.06280457 -91.23828125 128.90625 C-90.59717335 112.25639354 -82.50273054 97.80892538 -71.48291016 85.70654297 C-70.38260789 84.44030773 -69.32603752 83.13579216 -68.29443359 81.81298828 C-60.14627127 71.41229597 -50.54528426 62.4229349 -41.13818359 53.17919922 C-30.58639173 42.79437304 -20.30428717 32.6210227 -12.3125 20.0625 C-11.94439209 19.4847583 -11.57628418 18.9070166 -11.19702148 18.31176758 C-8.16148232 13.46007122 -5.59915822 8.42325577 -3.19140625 3.23046875 C-2 1 -2 1 0 0 Z " fill="#73D5CB" transform="translate(99,15)"/>
<path d="M0 0 C0.99 1.485 0.99 1.485 2 3 C2.60328125 3.83724609 2.60328125 3.83724609 3.21875 4.69140625 C8.96232429 13.07912602 9.55411415 21.12927501 8 31 C7.34 31 6.68 31 6 31 C5.896875 31.53625 5.79375 32.0725 5.6875 32.625 C4.81907303 35.62502044 3.44379704 38.2379535 2 41 C1.34 41 0.68 41 0 41 C-0.226875 41.886875 -0.45375 42.77375 -0.6875 43.6875 C-2.18389846 47.4641247 -3.92491737 49.38617976 -7 52 C-7.66 52 -8.32 52 -9 52 C-9.33 52.99 -9.66 53.98 -10 55 C-10.99 55 -11.98 55 -13 55 C-13 55.66 -13 56.32 -13 57 C-15.5614657 59.29648649 -16.47967572 60 -20 60 C-20 60.99 -20 61.98 -20 63 C-23.2690159 66.1782099 -24.32165993 67 -29 67 C-29 67.99 -29 68.98 -29 70 C-29.66 70 -30.32 70 -31 70 C-31.495 71.485 -31.495 71.485 -32 73 C-33.32 73 -34.64 73 -36 73 C-36.226875 73.639375 -36.45375 74.27875 -36.6875 74.9375 C-38 77 -38 77 -40.625 77.75 C-41.40875 77.8325 -42.1925 77.915 -43 78 C-43 78.66 -43 79.32 -43 80 C-43.66 80 -44.32 80 -45 80 C-45.495 81.485 -45.495 81.485 -46 83 C-46.886875 83.4125 -47.77375 83.825 -48.6875 84.25 C-51.88220182 85.937767 -52.92935098 86.94093249 -55.0625 89.6875 C-57.65860962 92.94804929 -57.65860962 92.94804929 -60.875 93.4375 C-61.57625 93.293125 -62.2775 93.14875 -63 93 C-63 94.65 -63 96.3 -63 98 C-63.928125 98.4021875 -63.928125 98.4021875 -64.875 98.8125 C-67.2995233 99.95556848 -67.2995233 99.95556848 -69 103 C-69.66 103 -70.32 103 -71 103 C-71.27199219 103.598125 -71.54398438 104.19625 -71.82421875 104.8125 C-72.972679 106.94917024 -74.12102722 108.28621227 -75.8125 110 C-79.40023702 114.00776477 -81.01488738 118.51202483 -82.82421875 123.5234375 C-83.21222656 124.34070313 -83.60023437 125.15796875 -84 126 C-85.485 126.495 -85.485 126.495 -87 127 C-87 133.93 -87 140.86 -87 148 C-87.99 148.33 -88.98 148.66 -90 149 C-94.49588327 131.34278101 -89.92605651 113.32218871 -81.17089844 97.89697266 C-78.42024552 93.44063964 -75.00281747 89.57223795 -71.48291016 85.70654297 C-70.38260789 84.44030773 -69.32603752 83.13579216 -68.29443359 81.81298828 C-60.14627127 71.41229597 -50.54528426 62.4229349 -41.13818359 53.17919922 C-30.58639173 42.79437304 -20.30428717 32.6210227 -12.3125 20.0625 C-11.94439209 19.4847583 -11.57628418 18.9070166 -11.19702148 18.31176758 C-8.16148232 13.46007122 -5.59915822 8.42325577 -3.19140625 3.23046875 C-2 1 -2 1 0 0 Z " fill="#9FDFD1" transform="translate(99,15)"/>
<path d="M0 0 C0.99 0.33 1.98 0.66 3 1 C1.07289294 11.55808656 1.07289294 11.55808656 -1 16 C-1.66 16 -2.32 16 -3 16 C-3.3403125 17.2684375 -3.3403125 17.2684375 -3.6875 18.5625 C-6.28407815 25.36306181 -10.31698636 29.50094753 -16 34 C-18.68888162 36.55771666 -21.12323583 39.14788299 -23.5 42 C-25.87353344 44.84824012 -28.27004182 47.49138978 -31 50 C-31.66 50 -32.32 50 -33 50 C-33.20625 50.556875 -33.4125 51.11375 -33.625 51.6875 C-35.15508893 54.26083139 -37.00795452 55.73050355 -39.34375 57.5625 C-41.77388341 59.6716724 -43.70799607 62.12916709 -45.703125 64.64453125 C-46.13109375 65.09183594 -46.5590625 65.53914063 -47 66 C-47.66 66 -48.32 66 -49 66 C-49 66.99 -49 67.98 -49 69 C-49.66 69 -50.32 69 -51 69 C-51.12375 69.57621094 -51.2475 70.15242188 -51.375 70.74609375 C-52.01425226 73.05139721 -52.91763112 74.93357592 -54 77.0625 C-56.39566165 82.27046011 -56.7878583 87.32520945 -57 93 C-57.66 93 -58.32 93 -59 93 C-63.89970117 83.86873873 -66.14947698 73.82757512 -63.32421875 63.5390625 C-62.5 61.625 -62.5 61.625 -61 59 C-61.66 59 -62.32 59 -63 59 C-61.67291983 53.97066778 -59.38128841 50.5386535 -56 46.6875 C-55.50653076 46.11845947 -55.01306152 45.54941895 -54.50463867 44.96313477 C-47.62125862 37.15579628 -39.81442392 30.73791176 -31.5625 24.4375 C-30.51412964 23.63107056 -30.51412964 23.63107056 -29.44458008 22.80834961 C-28.78353271 22.31343018 -28.12248535 21.81851074 -27.44140625 21.30859375 C-26.85045166 20.86314209 -26.25949707 20.41769043 -25.65063477 19.95874023 C-24 19 -24 19 -21 19 C-20.505 18.505 -20.505 18.505 -20 18 C-19.25492188 17.48308594 -18.50984375 16.96617187 -17.7421875 16.43359375 C-12.18777452 12.56669316 -7.53261829 8.79941689 -3.33984375 3.46875 C-2.89769531 2.9840625 -2.45554688 2.499375 -2 2 C-1.34 2 -0.68 2 0 2 C0 1.34 0 0.68 0 0 Z " fill="#2B699D" transform="translate(144,174)"/>
<path d="M0 0 C0.66 0 1.32 0 2 0 C2 0.66 2 1.32 2 2 C2.99 2.33 3.98 2.66 5 3 C5.33 3.33 5.66 3.66 6 4 C6.598125 4.103125 7.19625 4.20625 7.8125 4.3125 C10.67419225 5.21188899 11.93005186 6.86536598 14 9 C24.62370077 15.0216235 38.11156963 15.08901652 50 14 C50.33 13.67 50.66 13.34 51 13 C52.94065019 12.7657836 54.88161048 12.53378515 56.82421875 12.31640625 C59.23859783 12.01649352 59.23859783 12.01649352 62.4375 11 C73.04494382 8.02247191 73.04494382 8.02247191 77 10 C60.09638445 19.68297662 43.64548131 26.11868961 23.953125 21.24609375 C13.27645761 17.72161377 6.26362309 11.26216605 0 2 C0 1.34 0 0.68 0 0 Z " fill="#56BCBE" transform="translate(14,174)"/>
<path d="M0 0 C0.33 0.66 0.66 1.32 1 2 C2.98 1.34 4.96 0.68 7 0 C6.360625 0.763125 5.72125 1.52625 5.0625 2.3125 C2.85767219 4.88246713 2.85767219 4.88246713 2 8 C3.65 8 5.3 8 7 8 C5.95595703 11.1185699 5.06351929 11.9632533 2.1640625 13.640625 C0.99617188 14.17171875 -0.17171875 14.7028125 -1.375 15.25 C-7.58280299 18.15920075 -13.05817956 21.54099015 -18.671875 25.49609375 C-21 27 -21 27 -23 27 C-18.94423426 18.28108331 -11.82027153 11.59080445 -5 5 C-3.9767954 3.98154345 -2.95544556 2.96121296 -1.9375 1.9375 C-1.298125 1.298125 -0.65875 0.65875 0 0 Z " fill="#33688E" transform="translate(107,119)"/>
<path d="M0 0 C0.66 0 1.32 0 2 0 C1.67 0.86625 1.34 1.7325 1 2.625 C-1.51566004 11.51125238 -0.77845392 20.68740138 3 29 C3.37966646 30.65672637 3.73760976 32.32070245 4 34 C4.66 34 5.32 34 6 34 C6.33 33.34 6.66 32.68 7 32 C7.33 34.31 7.66 36.62 8 39 C8.99 39 9.98 39 11 39 C11.268125 40.093125 11.53625 41.18625 11.8125 42.3125 C12.87663739 45.61692663 13.34654664 46.94960422 16 49 C15.938125 47.989375 15.87625 46.97875 15.8125 45.9375 C16.02642827 41.44500628 17.04613532 38.98914039 19 35 C19.66 35 20.32 35 21 35 C21.268125 34.154375 21.53625 33.30875 21.8125 32.4375 C23.0478595 28.86145933 24.476988 25.46139092 26 22 C27.65 22 29.3 22 31 22 C29.54892668 25.0367823 27.88889315 27.92359489 26.18188477 30.82275391 C21.84331576 38.2210714 17.96132755 45.58342935 16 54 C14.515 53.505 14.515 53.505 13 53 C12.28080881 51.35531576 11.6224385 49.68368422 11 48 C9.93017404 46.26995398 8.82336333 44.56242446 7.6875 42.875 C-0.09773879 30.77544138 -4.92111079 18.53488189 -2 4 C-0.953125 1.68359375 -0.953125 1.68359375 0 0 Z " fill="#19415C" transform="translate(81,233)"/>
<path d="M0 0 C0.66 0 1.32 0 2 0 C5.30495579 14.75332262 1.55952967 30.06865837 -5.71875 43.0703125 C-10.00163858 49.79304334 -15.00845102 55.55887357 -20.484375 61.30859375 C-23.01184726 63.93595307 -23.01184726 63.93595307 -25.125 66.703125 C-27.39895262 69.48871695 -29.95119914 71.12914493 -33 73 C-31.75023244 69.34683329 -31.32901247 68.21934164 -28 66 C-28.33 65.34 -28.66 64.68 -29 64 C-28.67 63.34 -28.34 62.68 -28 62 C-26.68 62 -25.36 62 -24 62 C-22.29221993 60.48443503 -22.29221993 60.48443503 -20.875 58.5 C-19.3671875 56.53125 -19.3671875 56.53125 -18 55 C-17.34 55 -16.68 55 -16 55 C-16 53.02 -16 51.04 -16 49 C-14.515 49.495 -14.515 49.495 -13 50 C-12.67 49.01 -12.34 48.02 -12 47 C-11.34 47 -10.68 47 -10 47 C-9.7525 46.34 -9.505 45.68 -9.25 45 C-8.27481814 42.65956354 -7.23220934 40.49082249 -6.0625 38.25 C0.22195451 25.75143935 0.15097638 13.67175033 0 0 Z " fill="#1B3D5E" transform="translate(189,138)"/>
<path d="M0 0 C0.66 0.33 1.32 0.66 2 1 C-13.41498737 15.52157308 -13.41498737 15.52157308 -19.3125 20.75 C-27.25434316 27.86149868 -34.98530094 35.14291152 -41 44 C-41.33 43.34 -41.66 42.68 -42 42 C-41.071875 40.88625 -41.071875 40.88625 -40.125 39.75 C-38.02074668 37.23316428 -38.02074668 37.23316428 -37.0625 35 C-34.2119703 29.63429703 -28.4380835 25.73704457 -23.890625 21.8671875 C-21.76505303 20.04979798 -21.76505303 20.04979798 -21 17 C-19.34795544 16.29788106 -17.68076231 15.63028587 -16 15 C-15.67 14.34 -15.34 13.68 -15 13 C-14.34 13 -13.68 13 -13 13 C-12.566875 11.6078125 -12.566875 11.6078125 -12.125 10.1875 C-11 7 -11 7 -9 4 C-7.01751285 3.28293018 -5.01584651 2.61709587 -3 2 C-2.01 1.34 -1.02 0.68 0 0 Z " fill="#133C61" transform="translate(154,211)"/>
<path d="M0 0 C4.82030753 7.95733307 2.06647463 20.40847519 0 29 C-0.85544471 31.4620116 -1.83180405 33.66360809 -3 36 C-5.52878959 33.47121041 -5.42910155 31.49528121 -5.78125 28.04296875 C-6.03655053 25.65864412 -6.48780284 23.34147273 -7 21 C-6.34 21.66 -5.68 22.32 -5 23 C-4.01 23 -3.02 23 -2 23 C-1.80543295 21.04235617 -1.61955753 19.08384679 -1.4375 17.125 C-1.33308594 16.03445312 -1.22867188 14.94390625 -1.12109375 13.8203125 C-0.77360596 11.04847977 -0.77360596 11.04847977 -2 9 C-1.34 9 -0.68 9 0 9 C-0.185625 7.700625 -0.37125 6.40125 -0.5625 5.0625 C-0.87890625 2.84765625 -0.87890625 2.84765625 -1 1 C-0.67 0.67 -0.34 0.34 0 0 Z " fill="#356090" transform="translate(188,137)"/>
<path d="M0 0 C5.17837838 0 5.17837838 0 8 1 C10.0686994 3.3975389 11.0081084 6.01910472 12 9 C12.61875 10.85625 12.61875 10.85625 13.25 12.75 C14.4432189 18.11420532 14.22749824 23.54004229 14 29 C13.97035156 29.7940625 13.94070312 30.588125 13.91015625 31.40625 C13.6420775 34.91088921 13.1985551 36.75932715 10.9375 39.5 C10.298125 39.995 9.65875 40.49 9 41 C9.13277344 40.3709375 9.26554688 39.741875 9.40234375 39.09375 C9.9581448 36.39994056 10.48302002 33.70151192 11 31 C11.14050781 30.32066406 11.28101563 29.64132813 11.42578125 28.94140625 C12.63854574 21.91321684 11.52590739 14.9428214 8.25 8.625 C5.71228473 5.66433218 3.04760545 3.42423161 0 1 C0 0.67 0 0.34 0 0 Z " fill="#123C67" transform="translate(139,127)"/>
<path d="M0 0 C0.66 0 1.32 0 2 0 C1.67 0.86625 1.34 1.7325 1 2.625 C-1.51566004 11.51125238 -0.77845392 20.68740138 3 29 C3.37966646 30.65672637 3.73760976 32.32070245 4 34 C4.66 34 5.32 34 6 34 C6.33 33.34 6.66 32.68 7 32 C7.33 34.31 7.66 36.62 8 39 C8.99 39 9.98 39 11 39 C11.66 41.31 12.32 43.62 13 46 C12.34 46 11.68 46 11 46 C7 40.58823529 7 40.58823529 7 38 C6.01 37.67 5.02 37.34 4 37 C-2.17509332 27.06854427 -4.29858826 15.43733028 -2 4 C-0.953125 1.68359375 -0.953125 1.68359375 0 0 Z " fill="#225178" transform="translate(81,233)"/>
<path d="M0 0 C0 0.66 0 1.32 0 2 C-1.98 2.33 -3.96 2.66 -6 3 C-3.69 3.33 -1.38 3.66 1 4 C-4.17949008 9.17949008 -13.13237854 8.57147846 -20 9 C-20 8.34 -20 7.68 -20 7 C-17.36 6.67 -14.72 6.34 -12 6 C-13.65 5.67 -15.3 5.34 -17 5 C-17 4.67 -17 4.34 -17 4 C-19.64 3.67 -22.28 3.34 -25 3 C-25 2.67 -25 2.34 -25 2 C-23.44539063 1.90912109 -23.44539063 1.90912109 -21.859375 1.81640625 C-20.48957127 1.73196629 -19.11978025 1.64732003 -17.75 1.5625 C-17.06808594 1.52318359 -16.38617188 1.48386719 -15.68359375 1.44335938 C-10.31607273 1.10463232 -5.38991118 -0.12249798 0 0 Z " fill="#52B8BD" transform="translate(72,188)"/>
<path d="M0 0 C-2.97 0.99 -5.94 1.98 -9 3 C-9 3.66 -9 4.32 -9 5 C-33.68152671 9.25936979 -33.68152671 9.25936979 -44 5 C-44.66 4.34 -45.32 3.68 -46 3 C-44.84113281 3.15726563 -43.68226562 3.31453125 -42.48828125 3.4765625 C-29.30758134 5.10280912 -18.37631522 3.7842806 -5.75390625 -0.00390625 C-2 -1 -2 -1 0 0 Z " fill="#66BAB8" transform="translate(103,169)"/>
<path d="M0 0 C0.33 0.66 0.66 1.32 1 2 C2.98 1.34 4.96 0.68 7 0 C6.360625 0.763125 5.72125 1.52625 5.0625 2.3125 C2.85767219 4.88246713 2.85767219 4.88246713 2 8 C3.65 8 5.3 8 7 8 C6.3515625 9.921875 6.3515625 9.921875 5 12 C2.3984375 12.828125 2.3984375 12.828125 -0.625 13.25 C-1.62789063 13.39953125 -2.63078125 13.5490625 -3.6640625 13.703125 C-4.82035156 13.85007813 -4.82035156 13.85007813 -6 14 C-6 12.35 -6 10.7 -6 9 C-5.01 8.67 -4.02 8.34 -3 8 C-2.67 7.01 -2.34 6.02 -2 5 C-1.34 4.67 -0.68 4.34 0 4 C0 2.68 0 1.36 0 0 Z " fill="#36729E" transform="translate(107,119)"/>
<path d="M0 0 C2.65647485 2.65647485 3.32092773 5.27309248 4.5625 8.8125 C4.99691406 10.03582031 5.43132812 11.25914063 5.87890625 12.51953125 C8.84550836 21.72943535 9.41062569 31.83394345 6 41 C5.67 41 5.34 41 5 41 C5.01571045 40.35039307 5.0314209 39.70078613 5.04760742 39.03149414 C5.11059337 36.04192069 5.14919021 33.05248751 5.1875 30.0625 C5.21263672 29.04091797 5.23777344 28.01933594 5.26367188 26.96679688 C5.33832944 19.17752422 3.81263971 13.29309405 0.8125 6.1875 C0 4 0 4 0 0 Z " fill="#7CC4B9" transform="translate(106,28)"/>
<path d="M0 0 C0.66 0 1.32 0 2 0 C2 0.66 2 1.32 2 2 C1.34 2 0.68 2 0 2 C-0.66 3.65 -1.32 5.3 -2 7 C-2.66 7 -3.32 7 -4 7 C-4.26296875 7.5878125 -4.5259375 8.175625 -4.796875 8.78125 C-8.27661383 15.1984307 -15.12167454 20.70722485 -22 23 C-22 23.66 -22 24.32 -22 25 C-22.66 24.67 -23.32 24.34 -24 24 C-20.7905012 20.6835179 -17.44119245 17.57652877 -14 14.5 C-7.52922395 8.70592255 -7.52922395 8.70592255 -1.8125 2.1875 C-1.214375 1.465625 -0.61625 0.74375 0 0 Z " fill="#1F466A" transform="translate(146,169)"/>
<path d="M0 0 C1.06597577 3.19792731 0.88151225 4.28429773 0.3125 7.5 C-0.37085032 13.64116146 1.06386993 18.59821767 4 24 C5.88285506 26.12719503 7.61291085 27.39130949 10 29 C10.66 29.66 11.32 30.32 12 31 C7.13634454 30.58311525 5.17061868 28.58780535 2 25 C1.443125 24.401875 0.88625 23.80375 0.3125 23.1875 C-3.47191198 16.8801467 -3.54742282 10.02579876 -2 3 C-1.34 2.01 -0.68 1.02 0 0 Z " fill="#70C6BB" transform="translate(44,140)"/>
<path d="M0 0 C0 0.99 0 1.98 0 3 C-0.66 3 -1.32 3 -2 3 C-2 3.66 -2 4.32 -2 5 C-2.66 5 -3.32 5 -4 5 C-4.2475 5.556875 -4.495 6.11375 -4.75 6.6875 C-6.22924818 9.42410913 -7.93467439 11.67650869 -10 14 C-10.66 14 -11.32 14 -12 14 C-12.0825 14.5775 -12.165 15.155 -12.25 15.75 C-13.20531013 18.6159304 -14.78469173 19.9990764 -17 22 C-14.4686782 12.85761967 -7.50557053 5.58106527 0 0 Z " fill="#254D6C" transform="translate(99,210)"/>
<path d="M0 0 C0.66 0.66 1.32 1.32 2 2 C4.06874034 2.6425235 4.06874034 2.6425235 6 3 C6.17835515 7.54805635 5.99785435 10.8794254 4 15 C1.47121041 12.47121041 1.57089845 10.49528121 1.21875 7.04296875 C0.96344947 4.65864412 0.51219716 2.34147273 0 0 Z " fill="#2B659B" transform="translate(181,158)"/>
<path d="M0 0 C1.32 0 2.64 0 4 0 C4.33 1.32 4.66 2.64 5 4 C4.34 4 3.68 4 3 4 C3 3.34 3 2.68 3 2 C-0.24849977 3.72226496 -0.24849977 3.72226496 -1 7 C-4.98196457 8.05404945 -7.98195309 7.84098656 -12 7 C-8.5980513 4.90649311 -5.94727588 4.82057837 -2 5 C-2 4.34 -2 3.68 -2 3 C-4.64 3.33 -7.28 3.66 -10 4 C-9.67 3.34 -9.34 2.68 -9 2 C-7.1875 1.62109375 -7.1875 1.62109375 -5 1.4375 C-2.21067942 1.37334592 -2.21067942 1.37334592 0 0 Z " fill="#5DC3C5" transform="translate(74,185)"/>
<path d="M0 0 C2.19549682 3.29324523 4.17811188 6.48187121 6 10 C5.67 10.99 5.34 11.98 5 13 C4.01 11.02 3.02 9.04 2 7 C1.401875 7.309375 0.80375 7.61875 0.1875 7.9375 C-2 9 -2 9 -5 10 C-4.55090939 8.51800098 -4.09043436 7.03944764 -3.625 5.5625 C-3.36976562 4.73878906 -3.11453125 3.91507813 -2.8515625 3.06640625 C-2 1 -2 1 0 0 Z " fill="#97C7B8" transform="translate(99,15)"/>
<path d="M0 0 C-0.66 0 -1.32 0 -2 0 C-2 0.66 -2 1.32 -2 2 C-2.56589844 2.26554687 -3.13179687 2.53109375 -3.71484375 2.8046875 C-4.44832031 3.15789062 -5.18179688 3.51109375 -5.9375 3.875 C-6.66839844 4.22304687 -7.39929688 4.57109375 -8.15234375 4.9296875 C-10.16332459 5.8684977 -10.16332459 5.8684977 -11 8 C-12.84765625 8.6328125 -12.84765625 8.6328125 -15.0625 9.125 C-15.79597656 9.29257813 -16.52945313 9.46015625 -17.28515625 9.6328125 C-17.85105469 9.75398438 -18.41695313 9.87515625 -19 10 C-14.74859849 5.01559823 -6.69512654 -2.23170885 0 0 Z " fill="#285B84" transform="translate(127,111)"/>
<path d="M0 0 C0.99 0.33 1.98 0.66 3 1 C1.25612361 2.79799669 -0.49458982 4.58832297 -2.25 6.375 C-2.74113281 6.88289063 -3.23226562 7.39078125 -3.73828125 7.9140625 C-6.30582136 10.51583648 -8.57391571 12.64588097 -12 14 C-12 12.35 -12 10.7 -12 9 C-11.25363281 8.91878906 -10.50726563 8.83757812 -9.73828125 8.75390625 C-6.39014205 7.83209332 -5.34904251 6.60764075 -3.1875 3.9375 C-2.58292969 3.20402344 -1.97835937 2.47054687 -1.35546875 1.71484375 C-0.90816406 1.14894531 -0.46085937 0.58304687 0 0 Z " fill="#84D5CA" transform="translate(48,99)"/>
<path d="M0 0 C0.66 0.33 1.32 0.66 2 1 C-3.75 6 -3.75 6 -6 6 C-6.33 6.99 -6.66 7.98 -7 9 C-7.99 9.33 -8.98 9.66 -10 10 C-10.33 10.66 -10.66 11.32 -11 12 C-13.4375 13.6875 -13.4375 13.6875 -16 15 C-16.66 14.67 -17.32 14.34 -18 14 C-12.33680699 8.79555727 -6.37502975 4.29791965 0 0 Z " fill="#205275" transform="translate(118,195)"/>
<path d="M0 0 C0 3 0 3 -2.10546875 5.29296875 C-3.53826172 6.63294922 -3.53826172 6.63294922 -5 8 C-6.04172255 9.0337831 -7.07937267 10.07168324 -8.11328125 11.11328125 C-11.07552083 14.07552083 -14.03776042 17.03776042 -17 20 C-17.66 19.67 -18.32 19.34 -19 19 C-12.73 12.73 -6.46 6.46 0 0 Z " fill="#9CCFC2" transform="translate(73,53)"/>
<path d="M0 0 C0 0.99 0 1.98 0 3 C-5.75 4.125 -5.75 4.125 -8 3 C-8.33 3.99 -8.66 4.98 -9 6 C-10.32 6 -11.64 6 -13 6 C-13 5.34 -13 4.68 -13 4 C-12.01 4 -11.02 4 -10 4 C-10 3.34 -10 2.68 -10 2 C-9.34 2 -8.68 2 -8 2 C-8 1.34 -8 0.68 -8 0 C-4.71023192 -1.09658936 -3.28696233 -0.79953138 0 0 Z " fill="#2F618B" transform="translate(135,109)"/>
<path d="M0 0 C0.66 0.66 1.32 1.32 2 2 C-0.13525351 4.1878136 -2.3574279 6.20913689 -4.6875 8.1875 C-5.31011719 8.71730469 -5.93273437 9.24710938 -6.57421875 9.79296875 C-7.04472656 10.19128906 -7.51523438 10.58960938 -8 11 C-8.66 10.67 -9.32 10.34 -10 10 C-8.68 8.35 -7.36 6.7 -6 5 C-7.32 4.67 -8.64 4.34 -10 4 C-6.7 2.68 -3.4 1.36 0 0 Z " fill="#63AFAC" transform="translate(113,163)"/>
<path d="M0 0 C0.66 0.33 1.32 0.66 2 1 C1.2884375 1.5878125 1.2884375 1.5878125 0.5625 2.1875 C-1.35179633 4.40808374 -1.61266988 6.13375709 -2 9 C-2.66 8.67 -3.32 8.34 -4 8 C-4.45375 8.825 -4.9075 9.65 -5.375 10.5 C-5.91125 11.325 -6.4475 12.15 -7 13 C-7.66 13 -8.32 13 -9 13 C-9 14.32 -9 15.64 -9 17 C-9.99 17.33 -10.98 17.66 -12 18 C-10.67143612 12.91480722 -8.29476559 9.50456601 -4.875 5.625 C-4.17310547 4.80708984 -4.17310547 4.80708984 -3.45703125 3.97265625 C-2.3127059 2.64150227 -1.15745428 1.31975414 0 0 Z " fill="#A3CDC4" transform="translate(29,99)"/>
<path d="M0 0 C0.66 0 1.32 0 2 0 C1.67257813 0.97066406 1.34515625 1.94132813 1.0078125 2.94140625 C-0.23781217 7.3010926 -0.2253404 11.43375972 -0.125 15.9375 C-0.11146484 17.10635742 -0.11146484 17.10635742 -0.09765625 18.29882812 C-0.07433691 20.19935447 -0.03847586 22.09972008 0 24 C-2.72841257 21.27158743 -2.84233965 18.70501829 -3 15 C-2.64796706 4.61502831 -2.64796706 4.61502831 0 0 Z " fill="#1A3D55" transform="translate(81,233)"/>
<path d="M0 0 C0 0.33 0 0.66 0 1 C2.97 1.495 2.97 1.495 6 2 C4 4 4 4 1.25 4.265625 C0.1775 4.26046875 -0.895 4.2553125 -2 4.25 C-3.60875 4.25773438 -3.60875 4.25773438 -5.25 4.265625 C-8 4 -8 4 -10 2 C-6.49223216 0.39644899 -3.85645121 -0.22036864 0 0 Z " fill="#5EC1C7" transform="translate(56,191)"/>
<path d="M0 0 C2 2 2 2 2.5625 5.8125 C2.52727088 8.57546941 2.36703061 9.6164942 0.43359375 11.63671875 C-1.33181674 12.88142231 -3.09272706 13.98797762 -5 15 C-4.34 13.02 -3.68 11.04 -3 9 C-2.34 9 -1.68 9 -1 9 C-0.67 6.03 -0.34 3.06 0 0 Z " fill="#86D9C7" transform="translate(108,37)"/>
<path d="M0 0 C0.66 0.33 1.32 0.66 2 1 C-6.261959 8.66742597 -6.261959 8.66742597 -11 10 C-11.0625 7.75 -11.0625 7.75 -10 5 C-7.74172541 3.68231195 -5.46899171 2.73802845 -3.03125 1.796875 C-1.03772621 1.17106681 -1.03772621 1.17106681 0 0 Z " fill="#294D73" transform="translate(154,211)"/>
<path d="M0 0 C0.66 0.33 1.32 0.66 2 1 C0.65205171 7.49465992 0.65205171 7.49465992 -2.5 9.9375 C-5 11 -5 11 -7 11 C-5.22054913 6.95579349 -2.60470327 3.53921513 0 0 Z " fill="#2F677F" transform="translate(91,135)"/>
<path d="M0 0 C3.3 0 6.6 0 10 0 C4.82050992 5.17949008 -4.13237854 4.57147846 -11 5 C-11 4.34 -11 3.68 -11 3 C-7.37 3 -3.74 3 0 3 C0 2.01 0 1.02 0 0 Z " fill="#55AEAD" transform="translate(63,192)"/>
<path d="M0 0 C7.42779648 2.02576268 12.16370039 8.70846865 16 15 C15.67 15.66 15.34 16.32 15 17 C14.34 15.68 13.68 14.36 13 13 C12.34 13 11.68 13 11 13 C10.08799926 11.58133218 9.17870685 10.16082922 8.28515625 8.73046875 C6.34583611 6.11916534 3.91822015 4.22235689 1.390625 2.19921875 C0.93171875 1.80347656 0.4728125 1.40773438 0 1 C0 0.67 0 0.34 0 0 Z " fill="#133964" transform="translate(171,111)"/>
<path d="M0 0 C-1.04874998 2.62187494 -1.64931313 3.79371361 -4.125 5.25 C-4.74375 5.4975 -5.3625 5.745 -6 6 C-6 5.34 -6 4.68 -6 4 C-8.31 4.33 -10.62 4.66 -13 5 C-9.31451808 1.31451808 -5.13149791 0 0 0 Z " fill="#72DDD7" transform="translate(107,168)"/>
<path d="M0 0 C1 2 1 2 0.07421875 4.79296875 C-0.61220703 6.47326172 -0.61220703 6.47326172 -1.3125 8.1875 C-3.13888529 12.76360982 -4.77972439 17.22983169 -6 22 C-6.33 22 -6.66 22 -7 22 C-6.96241221 13.50515863 -4.11812484 7.3295066 0 0 Z " fill="#A0CFC5" transform="translate(16,117)"/>
<path d="M0 0 C0.33 0.99 0.66 1.98 1 3 C-2.13783566 7.46903867 -5.3539903 10.19078484 -10 13 C-8.75023244 9.34683329 -8.32901247 8.21934164 -5 6 C-5.33 5.34 -5.66 4.68 -6 4 C-5.67 3.34 -5.34 2.68 -5 2 C-3.68 2 -2.36 2 -1 2 C-0.67 1.34 -0.34 0.68 0 0 Z " fill="#13456E" transform="translate(166,198)"/>
<path d="M0 0 C0 0.66 0 1.32 0 2 C0.66 2.33 1.32 2.66 2 3 C0.02 3.99 0.02 3.99 -2 5 C-1.67 4.01 -1.34 3.02 -1 2 C-2.32 2 -3.64 2 -5 2 C-5.28875 2.639375 -5.5775 3.27875 -5.875 3.9375 C-7 6 -7 6 -9 7 C-9.33 5.68 -9.66 4.36 -10 3 C-3.375 0 -3.375 0 0 0 Z " fill="#5FCDC7" transform="translate(101,172)"/>
<path d="M0 0 C1.65 0 3.3 0 5 0 C3.44499019 3.81684226 0.96404505 6.19195732 -2 9 C-2 5.61976483 -1.12544378 3.16531063 0 0 Z " fill="#1C4168" transform="translate(107,255)"/>
<path d="M0 0 C-2.06756277 2.7972908 -3.14440371 3.02692273 -6.6875 3.6875 C-7.780625 3.790625 -8.87375 3.89375 -10 4 C-10.33 3.01 -10.66 2.02 -11 1 C-7.32589215 -0.17571451 -3.83070817 -0.07366746 0 0 Z " fill="#5FBEB4" transform="translate(91,183)"/>
<path d="M0 0 C2.64 0.33 5.28 0.66 8 1 C8.93423645 4.01031744 9.04449911 4.86650268 8 8 C6.66372225 6.85760183 5.33104612 5.71098945 4 4.5625 C3.2575 3.92441406 2.515 3.28632813 1.75 2.62890625 C1.1725 2.09136719 0.595 1.55382812 0 1 C0 0.67 0 0.34 0 0 Z " fill="#1E466D" transform="translate(139,127)"/>
<path d="M0 0 C0.99 0.33 1.98 0.66 3 1 C2.01 1.66 1.02 2.32 0 3 C0 2.01 0 1.02 0 0 Z M-2 3 C-1.34 3.33 -0.68 3.66 0 4 C-1.25942386 5.19959375 -2.53295286 6.38439443 -3.8125 7.5625 C-4.87404297 8.55443359 -4.87404297 8.55443359 -5.95703125 9.56640625 C-6.63121094 10.03949219 -7.30539063 10.51257813 -8 11 C-8.99 10.67 -9.98 10.34 -11 10 C-10.34 10 -9.68 10 -9 10 C-9 9.01 -9 8.02 -9 7 C-7.824375 6.566875 -7.824375 6.566875 -6.625 6.125 C-3.90328368 5.15087746 -3.90328368 5.15087746 -2 3 Z " fill="#86D6CA" transform="translate(79,75)"/>
<path d="M0 0 C0.33 0 0.66 0 1 0 C1.10832169 2.08218362 1.18573541 4.16599129 1.25 6.25 C1.29640625 7.41015625 1.3428125 8.5703125 1.390625 9.765625 C0.93035506 13.57666013 -0.05148444 14.65511755 -3 17 C-2.86722656 16.35933594 -2.73445312 15.71867188 -2.59765625 15.05859375 C-1.57506994 10.05016007 -0.66115853 5.06888206 0 0 Z " fill="#1D436C" transform="translate(151,151)"/>
<path d="M0 0 C0.8353125 0.556875 0.8353125 0.556875 1.6875 1.125 C1.0275 1.125 0.3675 1.125 -0.3125 1.125 C-0.3125 1.785 -0.3125 2.445 -0.3125 3.125 C-4.9375 5.25 -4.9375 5.25 -8.3125 4.125 C-7.6525 3.795 -6.9925 3.465 -6.3125 3.125 C-6.6425 2.465 -6.9725 1.805 -7.3125 1.125 C-2.88173077 -1.09038462 -2.88173077 -1.09038462 0 0 Z " fill="#2F638E" transform="translate(119.3125,124.875)"/>
<path d="M0 0 C0.99 0.33 1.98 0.66 3 1 C0.36 2.98 -2.28 4.96 -5 7 C-6.32 6.34 -7.64 5.68 -9 5 C-5.125 3 -5.125 3 -4 3 C-3.071875 2.2265625 -3.071875 2.2265625 -2.125 1.4375 C-1.073125 0.7259375 -1.073125 0.7259375 0 0 Z " fill="#3C6C99" transform="translate(128,189)"/>
<path d="M0 0 C-0.33 0.66 -0.66 1.32 -1 2 C-5.62 2 -10.24 2 -15 2 C-15 1.67 -15 1.34 -15 1 C-9.4584498 -0.96263236 -5.79141983 -1.01603857 0 0 Z " fill="#326C95" transform="translate(136,123)"/>
<path d="M0 0 C3.63 0.33 7.26 0.66 11 1 C9.515 2.485 9.515 2.485 8 4 C5.15124622 3.79846293 2.74900747 2.85624823 0 2 C0 1.34 0 0.68 0 0 Z " fill="#296183" transform="translate(150,105)"/>
<path d="M0 0 C0 0.99 0 1.98 0 3 C-0.66 3 -1.32 3 -2 3 C-2 3.66 -2 4.32 -2 5 C-2.66 5 -3.32 5 -4 5 C-4.28875 5.639375 -4.5775 6.27875 -4.875 6.9375 C-6 9 -6 9 -8 10 C-7.44449305 6.40094092 -6.25112752 5.00090201 -3.4375 2.75 C-2.79683594 2.22921875 -2.15617187 1.7084375 -1.49609375 1.171875 C-1.00238281 0.78515625 -0.50867188 0.3984375 0 0 Z " fill="#275877" transform="translate(99,210)"/>
<path d="M0 0 C0.99 0.33 1.98 0.66 3 1 C1.68 3.64 0.36 6.28 -1 9 C-1.66 9 -2.32 9 -3 9 C-3.33 10.32 -3.66 11.64 -4 13 C-4.33 12.34 -4.66 11.68 -5 11 C-4.67 10.01 -4.34 9.02 -4 8 C-3.34 8 -2.68 8 -2 8 C-1.34 5.36 -0.68 2.72 0 0 Z " fill="#205277" transform="translate(180,176)"/>
<path d="M0 0 C-2.31 2.31 -4.62 4.62 -7 7 C-7 4.37886292 -6.68707555 2.49064888 -6 0 C-2.25 -1.125 -2.25 -1.125 0 0 Z " fill="#72D0BA" transform="translate(65,116)"/>
<path d="M0 0 C0.66 0.33 1.32 0.66 2 1 C-0.64 3.64 -3.28 6.28 -6 9 C-6.66 8.67 -7.32 8.34 -8 8 C-7.34 7.01 -6.68 6.02 -6 5 C-5.34 5 -4.68 5 -4 5 C-3.67 4.01 -3.34 3.02 -3 2 C-2.01 1.34 -1.02 0.68 0 0 Z " fill="#143756" transform="translate(145,219)"/>
<path d="M0 0 C-1.75 5.75 -1.75 5.75 -4 8 C-4.33 5.69 -4.66 3.38 -5 1 C-3 0 -3 0 0 0 Z " fill="#6DC7BB" transform="translate(49,132)"/>
<path d="M0 0 C0.33 1.32 0.66 2.64 1 4 C-1.97 6.475 -1.97 6.475 -5 9 C-3.7508258 5.54074837 -2.32472205 2.85306797 0 0 Z " fill="#83D6CB" transform="translate(23,124)"/>
<path d="M0 0 C-0.66 0 -1.32 0 -2 0 C-2 0.66 -2 1.32 -2 2 C-6.38461538 5 -6.38461538 5 -9 5 C-9 4.01 -9 3.02 -9 2 C-3.375 -1.125 -3.375 -1.125 0 0 Z " fill="#265274" transform="translate(127,111)"/>
<path d="M0 0 C2.34914492 2.34914492 2.73140357 3.95679446 3.625 7.125 C3.88539062 8.03507812 4.14578125 8.94515625 4.4140625 9.8828125 C4.70410156 10.93082031 4.70410156 10.93082031 5 12 C2.69857565 10.21825212 1.19965609 8.83695835 0.51171875 5.953125 C0.27676898 3.9753389 0.13248542 1.98728128 0 0 Z " fill="#8EC9B9" transform="translate(106,28)"/>
<path d="M0 0 C0.33 0.99 0.66 1.98 1 3 C0.34 3 -0.32 3 -1 3 C-1.28875 3.639375 -1.5775 4.27875 -1.875 4.9375 C-3 7 -3 7 -5 8 C-4.75 5.125 -4.75 5.125 -4 2 C-1.9375 0.625 -1.9375 0.625 0 0 Z " fill="#234D79" transform="translate(172,190)"/>
<path d="M0 0 C0 1.98 0 3.96 0 6 C-0.99 6.33 -1.98 6.66 -3 7 C-3 6.01 -3 5.02 -3 4 C-3.66 4 -4.32 4 -5 4 C-4.67 3.01 -4.34 2.02 -4 1 C-2 0 -2 0 0 0 Z " fill="#21537C" transform="translate(152,165)"/>
<path d="M0 0 C0.33 0.66 0.66 1.32 1 2 C-1.45614035 7 -1.45614035 7 -3 9 C-3.99 9.33 -4.98 9.66 -6 10 C-4.6302836 6.00499382 -2.74277578 3.19990508 0 0 Z " fill="#87DDD0" transform="translate(17,133)"/>
<path d="M0 0 C1.65 0.33 3.3 0.66 5 1 C5 1.99 5 2.98 5 4 C3.02 4.33 1.04 4.66 -1 5 C-1.33 4.34 -1.66 3.68 -2 3 C-0.68 3 0.64 3 2 3 C2 2.34 2 1.68 2 1 C1.34 0.67 0.68 0.34 0 0 Z " fill="#3A6F9C" transform="translate(130,108)"/>
<path d="M0 0 C1.32 0 2.64 0 4 0 C4 0.99 4 1.98 4 3 C1.36 3.33 -1.28 3.66 -4 4 C-3.67 3.34 -3.34 2.68 -3 2 C-2.01 2 -1.02 2 0 2 C0 1.34 0 0.68 0 0 Z " fill="#2E688D" transform="translate(144,105)"/>
<path d="M0 0 C0.33 0 0.66 0 1 0 C1.125 2.375 1.125 2.375 1 5 C0.34 5.66 -0.32 6.32 -1 7 C-1.99 7 -2.98 7 -4 7 C-2.79618552 4.50638429 -1.54571278 2.31856917 0 0 Z " fill="#9ECEBF" transform="translate(85,38)"/>
<path d="M0 0 C0 3.69418201 -1.28179295 5.77836178 -3 9 C-3.66 9 -4.32 9 -5 9 C-3.90931332 5.22454612 -3.0916909 2.52956528 0 0 Z " fill="#0E3759" transform="translate(106,262)"/>
<path d="M0 0 C0.99 0 1.98 0 3 0 C2.60196439 2.88575819 2.20990931 3.82189513 -0.0625 5.75 C-0.701875 6.1625 -1.34125 6.575 -2 7 C-1.34 4.69 -0.68 2.38 0 0 Z " fill="#174E77" transform="translate(130,228)"/>
<path d="M0 0 C-6.75 4 -6.75 4 -9 4 C-9.33 3.01 -9.66 2.02 -10 1 C-8.71073008 0.63720544 -7.41846728 0.28503302 -6.125 -0.0625 C-5.40570313 -0.25972656 -4.68640625 -0.45695313 -3.9453125 -0.66015625 C-2 -1 -2 -1 0 0 Z " fill="#275A82" transform="translate(108,132)"/>
<path d="M0 0 C0.66 0.33 1.32 0.66 2 1 C-1.465 3.97 -1.465 3.97 -5 7 C-5 6.01 -5 5.02 -5 4 C-2.5 1.8125 -2.5 1.8125 0 0 Z " fill="#183862" transform="translate(154,211)"/>
<path d="M0 0 C-1.39332574 3.36720387 -2.9789286 4.9859524 -6 7 C-5.37162381 3.35541809 -4.14650034 0 0 0 Z " fill="#1D507F" transform="translate(139,179)"/>
<path d="" fill="#31655B" transform="translate(0,0)"/>
<path d="" fill="#0A09A0" transform="translate(0,0)"/>
<path d="M0 0 C2 1 2 1 2 1 Z " fill="#56F3F0" transform="translate(63,171)"/>
<path d="" fill="#79A7A9" transform="translate(0,0)"/>
<path d="" fill="#54C1B4" transform="translate(0,0)"/>
<path d="" fill="#31EEF4" transform="translate(0,0)"/>
<path d="" fill="#F5FEFE" transform="translate(0,0)"/>
<path d="" fill="#011796" transform="translate(0,0)"/>
<path d="" fill="#000000" transform="translate(0,0)"/>
<path d="" fill="#000000" transform="translate(0,0)"/>
<path d="" fill="#366B67" transform="translate(0,0)"/>
<path d="" fill="#000000" transform="translate(0,0)"/>
<path d="" fill="#1A039F" transform="translate(0,0)"/>
<path d="" fill="#0B0DA7" transform="translate(0,0)"/>
<path d="" fill="#306D64" transform="translate(0,0)"/>
<path d="" fill="#0B0FAD" transform="translate(0,0)"/>
<path d="" fill="#84BABE" transform="translate(0,0)"/>
<path d="" fill="#0B5B59" transform="translate(0,0)"/>
<path d="" fill="#47D8E0" transform="translate(0,0)"/>
<path d="" fill="#7EAAA2" transform="translate(0,0)"/>
<path d="" fill="#3ED5DD" transform="translate(0,0)"/>
<path d="" fill="#778189" transform="translate(0,0)"/>
<path d="" fill="#3DDCDB" transform="translate(0,0)"/>
<path d="" fill="#38E3E4" transform="translate(0,0)"/>
<path d="" fill="#729DA8" transform="translate(0,0)"/>
<path d="" fill="#36DEE3" transform="translate(0,0)"/>
<path d="" fill="#35CDCC" transform="translate(0,0)"/>
<path d="" fill="#8BB3B8" transform="translate(0,0)"/>
<path d="" fill="#071E56" transform="translate(0,0)"/>
<path d="" fill="#54E0E7" transform="translate(0,0)"/>
<path d="" fill="#34DCD3" transform="translate(0,0)"/>
<path d="" fill="#1B10A5" transform="translate(0,0)"/>
<path d="" fill="#49DED9" transform="translate(0,0)"/>
<path d="" fill="#8AF9FF" transform="translate(0,0)"/>
<path d="" fill="#91F3E6" transform="translate(0,0)"/>
<path d="" fill="#96A4BF" transform="translate(0,0)"/>
<path d="" fill="#FFFFFF" transform="translate(0,0)"/>
<path d="" fill="#E6FBF7" transform="translate(0,0)"/>
<path d="" fill="#216D74" transform="translate(0,0)"/>
<path d="" fill="#808080" transform="translate(0,0)"/>
<path d="" fill="#7BCABD" transform="translate(0,0)"/>
<path d="" fill="#048579" transform="translate(0,0)"/>
<path d="" fill="#5FD3C7" transform="translate(0,0)"/>
<path d="" fill="#DFFAFC" transform="translate(0,0)"/>
<path d="" fill="#9ED9D5" transform="translate(0,0)"/>
<path d="" fill="#3DCEC4" transform="translate(0,0)"/>
<path d="" fill="#84A7AB" transform="translate(0,0)"/>
<path d="" fill="#201CB4" transform="translate(0,0)"/>
<path d="" fill="#FFFFFF" transform="translate(0,0)"/>
<path d="" fill="#E5E5E7" transform="translate(0,0)"/>
<path d="" fill="#130488" transform="translate(0,0)"/>
<path d="" fill="#6B9F69" transform="translate(0,0)"/>
<path d="" fill="#0B038C" transform="translate(0,0)"/>
<path d="" fill="#E5E6E3" transform="translate(0,0)"/>
<path d="" fill="#49A09E" transform="translate(0,0)"/>
<path d="" fill="#F1FFFF" transform="translate(0,0)"/>
<path d="" fill="#9FF4E1" transform="translate(0,0)"/>
<path d="" fill="#4DE1DD" transform="translate(0,0)"/>
<path d="" fill="#1B7174" transform="translate(0,0)"/>
<path d="" fill="#18199B" transform="translate(0,0)"/>
<path d="" fill="#0805D1" transform="translate(0,0)"/>
<path d="" fill="#E8E6E7" transform="translate(0,0)"/>
<path d="" fill="#EAFFFF" transform="translate(0,0)"/>
<path d="" fill="#12109C" transform="translate(0,0)"/>
<path d="" fill="#15212A" transform="translate(0,0)"/>
<path d="" fill="#AEEADA" transform="translate(0,0)"/>
<path d="" fill="#FFFEFF" transform="translate(0,0)"/>
<path d="" fill="#0F14AD" transform="translate(0,0)"/>
<path d="" fill="#4AE3EF" transform="translate(0,0)"/>
<path d="" fill="#72838D" transform="translate(0,0)"/>
<path d="" fill="#8796AC" transform="translate(0,0)"/>
<path d="" fill="#42E2EA" transform="translate(0,0)"/>
<path d="" fill="#F4FFFF" transform="translate(0,0)"/>
<path d="" fill="#5ADCCC" transform="translate(0,0)"/>
<path d="" fill="#DFEFEE" transform="translate(0,0)"/>
<path d="" fill="#5ADCCC" transform="translate(0,0)"/>
<path d="" fill="#EBFFF8" transform="translate(0,0)"/>
<path d="" fill="#5ADCCC" transform="translate(0,0)"/>
<path d="" fill="#7C998F" transform="translate(0,0)"/>
<path d="" fill="#A4D9C9" transform="translate(0,0)"/>
<path d="" fill="#5ADCCC" transform="translate(0,0)"/>
<path d="" fill="#AAD7CA" transform="translate(0,0)"/>
<path d="" fill="#7F7F7F" transform="translate(0,0)"/>
<path d="" fill="#7F7F7F" transform="translate(0,0)"/>
<path d="" fill="#F9FFFF" transform="translate(0,0)"/>
<path d="" fill="#7C998F" transform="translate(0,0)"/>
<path d="" fill="#C0BBBD" transform="translate(0,0)"/>
<path d="" fill="#5BDDCD" transform="translate(0,0)"/>
<path d="" fill="#EFFBF7" transform="translate(0,0)"/>
<path d="" fill="#808080" transform="translate(0,0)"/>
<path d="" fill="#808080" transform="translate(0,0)"/>
<path d="" fill="#5ADCCC" transform="translate(0,0)"/>
</svg>
